<?xml version="1.0" encoding="utf-8"?>
<svg xmlns="http://www.w3.org/2000/svg" viewBox="0 0 500 500">
  <g transform="matrix(0.04207, 0, 0, -0.041609, 66.179155, 494.441452)" fill="#000000" stroke="none" style="">
    <path d="M4429 11492 c-32 -29 -44 -51 -59 -105 -10 -37 -26 -74 -34 -83 -10 -9 -16 -33 -16 -60 0 -32 -7 -55 -24 -77 -13 -18 -30 -52 -37 -77 -7 -25 -18 -52 -25 -60 -6 -8 -15 -35 -19 -60 -4 -25 -17 -61 -30 -80 -13 -19 -28 -52 -33 -72 -6 -21 -20 -50 -31 -64 -12 -15 -21 -31 -21 -37 0 -6 -15 -42 -34 -81 -18 -39 -41 -87 -49 -106 -24 -53 -88 -164 -97 -170 -5 -3 -12 -18 -15 -33 -4 -15 -20 -41 -36 -57 -16 -15 -29 -38 -29 -49 0 -11 -6 -24 -14 -28 -7 -4 -21 -24 -31 -43 -9 -19 -31 -49 -47 -67 -17 -17 -27 -36 -24 -42 4 -5 -15 -43 -41 -82 -27 -40 -57 -87 -68 -105 -11 -17 -29 -45 -39 -60 -11 -16 -52 -78 -92 -139 -40 -60 -84 -120 -98 -132 -14 -13 -26 -31 -26 -42 0 -10 -6 -21 -13 -24 -7 -2 -32 -38 -56 -78 -24 -41 -53 -85 -63 -99 -23 -30 -75 -106 -124 -180 -20 -30 -69 -97 -108 -150 -39 -52 -93 -126 -119 -165 -26 -38 -68 -98 -92 -133 -25 -35 -45 -65 -45 -68 0 -6 -20 -31 -42 -52 -10 -9 -18 -20 -18 -25 0 -10 -31 -45 -102 -115 -31 -32 -56 -71 -78 -122 -17 -41 -38 -82 -46 -91 -7 -8 -14 -20 -14 -26 0 -6 -17 -25 -37 -44 -105 -96 -143 -154 -143 -214 0 -8 -4 -15 -10 -15 -5 0 -10 -7 -10 -15 0 -22 11 -18 44 15 16 17 33 30 37 30 5 0 11 -17 15 -37 4 -21 27 -65 50 -98 60 -83 70 -109 76 -196 4 -64 10 -83 36 -120 16 -25 48 -57 69 -72 53 -38 99 -87 432 -466 31 -35 86 -98 124 -138 107 -118 95 -133 -115 -133 -116 0 -154 4 -203 21 -64 21 -121 19 -162 -7 -44 -28 -63 -11 -63 57 0 34 -75 122 -126 148 -71 36 -126 26 -192 -33 -58 -53 -77 -57 -138 -29 -72 33 -119 24 -183 -33 -53 -48 -81 -96 -81 -141 0 -31 43 -127 84 -187 20 -30 23 -42 15 -52 -18 -22 -108 -17 -193 11 -95 31 -100 31 -162 0 -53 -26 -130 -109 -140 -152 -16 -62 32 -149 113 -202 53 -36 104 -40 168 -14 52 20 338 30 417 14 52 -11 61 -18 154 -114 54 -57 164 -174 244 -262 273 -298 413 -450 538 -583 69 -73 134 -146 146 -162 17 -24 413 -461 557 -615 20 -22 68 -74 106 -115 37 -41 113 -122 168 -179 55 -57 115 -124 132 -149 l33 -46 0 -603 c0 -537 -2 -604 -16 -610 -28 -11 -54 9 -278 218 -39 37 -108 99 -154 139 -45 40 -82 76 -82 80 0 18 -152 168 -177 175 -92 22 -150 53 -210 110 -58 56 -63 64 -63 103 0 23 -11 67 -26 99 -33 74 -42 179 -43 473 0 328 4 320 -254 594 -62 65 -135 134 -163 152 -56 37 -114 48 -306 58 -126 6 -146 19 -273 180 -117 149 -208 259 -279 336 -28 30 -91 102 -141 159 -49 58 -110 125 -134 150 -24 25 -80 87 -125 136 -44 50 -100 106 -124 125 -25 19 -58 47 -75 62 -28 26 -30 27 -61 11 -41 -20 -75 -52 -93 -86 -13 -25 -12 -33 3 -75 10 -26 21 -51 26 -56 4 -6 8 -18 8 -29 0 -10 15 -33 33 -50 49 -49 275 -303 315 -356 20 -25 72 -87 116 -137 182 -204 345 -400 381 -458 42 -68 108 -136 163 -168 56 -32 59 -33 217 -39 110 -4 171 -11 196 -21 58 -25 264 -244 279 -297 5 -17 10 -156 11 -309 2 -245 0 -281 -15 -310 -22 -42 -52 -72 -72 -72 -17 0 -162 143 -309 304 -50 54 -123 133 -164 175 -41 42 -101 108 -134 146 -33 39 -67 78 -76 87 -18 19 -44 49 -198 229 -203 237 -251 294 -312 369 -33 41 -88 107 -121 145 -55 64 -184 227 -220 279 -42 60 -135 183 -149 197 -34 34 -251 319 -315 414 -30 45 -47 68 -128 176 -32 42 -58 80 -58 83 0 11 -58 82 -129 157 -69 74 -105 90 -143 65 -29 -19 -68 -85 -68 -114 0 -11 -6 -33 -14 -49 -8 -15 -22 -73 -32 -128 -9 -55 -23 -121 -31 -146 -13 -43 -33 -180 -55 -369 -15 -134 -21 -642 -9 -745 6 -49 14 -115 16 -145 10 -111 26 -227 42 -295 25 -113 31 -165 32 -249 1 -70 4 -83 27 -114 15 -19 35 -64 45 -101 9 -36 26 -86 38 -111 11 -25 22 -61 24 -80 3 -19 14 -55 25 -80 11 -25 23 -60 27 -78 4 -18 18 -45 31 -59 13 -14 24 -33 24 -42 0 -16 12 -43 79 -186 60 -126 119 -245 132 -265 5 -8 20 -36 34 -62 13 -26 29 -49 34 -53 6 -3 20 -26 32 -50 12 -25 26 -45 31 -45 5 0 14 -12 21 -27 19 -45 87 -147 103 -156 8 -4 14 -15 14 -22 0 -8 4 -15 9 -15 4 0 21 -19 37 -43 44 -64 289 -318 415 -429 83 -74 217 -178 227 -178 6 0 12 -7 16 -15 3 -8 11 -15 19 -15 7 0 26 -14 42 -30 16 -17 34 -30 40 -30 5 0 28 -12 50 -27 53 -37 350 -192 430 -224 11 -4 45 -18 75 -29 30 -12 64 -26 75 -30 41 -17 65 -18 65 -4 0 9 -12 14 -35 14 -22 0 -38 6 -41 15 -4 9 -19 15 -35 15 -17 0 -32 6 -35 15 -4 8 -17 15 -29 15 -13 0 -30 6 -37 14 -8 7 -25 17 -38 21 -13 4 -45 21 -71 36 -25 16 -53 29 -62 29 -8 0 -17 3 -19 8 -3 6 -27 20 -122 71 -17 9 -35 20 -40 24 -28 21 -119 77 -124 77 -4 0 -18 10 -32 23 -14 12 -42 33 -61 47 -39 27 -86 66 -208 170 -174 150 -406 404 -502 550 -24 36 -46 67 -49 70 -3 3 -10 14 -17 25 -68 114 -97 161 -102 165 -3 3 -16 25 -29 50 -13 25 -36 70 -52 100 -16 30 -33 60 -39 67 -6 7 -11 19 -11 26 0 8 -7 20 -15 27 -8 7 -15 21 -15 31 0 9 -7 24 -15 33 -8 8 -15 20 -15 26 0 7 -6 24 -13 38 -18 35 -41 86 -62 137 -9 22 -23 54 -30 70 -8 17 -17 42 -21 58 -3 15 -10 30 -15 33 -5 3 -9 15 -9 28 0 12 -7 31 -15 42 -8 10 -15 31 -15 45 0 14 -7 34 -15 45 -8 10 -15 29 -15 42 0 13 -6 35 -14 50 -7 15 -16 50 -19 78 -3 28 -14 66 -25 85 -11 19 -23 63 -27 98 -3 36 -13 83 -21 105 -7 23 -14 56 -14 74 0 18 -7 49 -15 69 -8 19 -15 58 -15 85 0 28 -6 80 -14 117 -48 220 -51 847 -5 1051 6 25 13 74 16 110 3 36 11 84 19 108 8 23 14 58 14 76 0 19 7 50 15 69 8 20 15 51 15 70 0 18 5 38 12 45 12 12 25 70 36 162 9 74 32 78 63 13 23 -47 75 -138 91 -158 4 -5 37 -50 73 -100 35 -49 69 -95 75 -102 5 -7 10 -15 10 -18 0 -3 40 -59 88 -123 48 -64 98 -134 111 -154 12 -21 27 -38 32 -38 5 0 9 -5 9 -10 0 -6 5 -16 10 -23 6 -7 61 -80 123 -163 61 -83 126 -168 142 -188 17 -21 52 -66 79 -100 26 -33 58 -72 70 -86 11 -14 37 -45 56 -70 19 -25 40 -49 46 -55 6 -5 26 -30 44 -55 19 -25 41 -52 49 -61 25 -25 62 -70 105 -124 22 -27 43 -52 46 -55 4 -3 44 -50 90 -105 45 -55 86 -102 89 -105 4 -3 49 -54 101 -115 52 -60 101 -117 109 -126 20 -20 61 -66 176 -194 49 -55 108 -118 130 -141 63 -64 268 -284 316 -338 24 -27 55 -61 68 -75 12 -14 53 -60 90 -100 36 -41 90 -101 118 -133 29 -31 63 -69 75 -84 13 -15 28 -32 35 -39 6 -6 35 -41 64 -76 28 -35 57 -68 63 -74 6 -5 29 -32 51 -60 44 -55 107 -125 205 -225 81 -84 245 -260 296 -320 38 -44 102 -115 134 -149 9 -9 32 -36 52 -61 20 -25 52 -63 73 -85 92 -101 244 -280 274 -323 16 -23 30 -32 45 -30 17 2 21 9 18 38 -1 19 -4 136 -6 260 l-4 225 -33 33 c-381 377 -746 741 -757 754 -14 16 -17 15 -50 -13 -32 -28 -40 -31 -86 -26 -40 4 -55 11 -79 37 -25 28 -28 38 -24 79 2 25 8 56 12 68 6 17 3 24 -11 29 -82 26 -208 123 -240 186 -9 17 -23 28 -35 28 -26 0 -78 28 -101 55 -37 42 -14 121 43 151 l29 15 0 340 c0 318 -1 342 -20 377 -10 20 -88 108 -172 196 l-153 158 -195 5 c-119 3 -207 10 -225 18 -17 6 -43 32 -60 56 -68 102 -314 413 -359 454 -6 6 -36 39 -66 75 -30 35 -59 70 -65 76 -17 19 -126 144 -204 234 -41 47 -79 90 -85 95 -6 6 -42 46 -81 89 -38 44 -83 94 -98 110 -32 35 -35 88 -5 94 21 4 41 -15 248 -247 41 -46 80 -89 85 -95 6 -6 28 -31 49 -56 38 -44 186 -208 216 -240 8 -9 33 -38 55 -65 22 -28 44 -55 50 -61 10 -10 39 -45 132 -159 27 -33 84 -106 126 -162 43 -56 85 -107 95 -112 9 -5 109 -12 221 -16 194 -7 206 -9 225 -30 12 -12 68 -73 126 -135 58 -62 110 -118 115 -124 6 -7 34 -37 63 -68 l52 -57 0 -174 c0 -95 3 -262 7 -371 6 -188 7 -198 30 -222 25 -27 27 -52 13 -124 -4 -25 -5 -50 -2 -57 4 -6 54 -47 112 -91 58 -44 115 -91 128 -104 21 -23 26 -24 62 -15 59 16 102 -11 135 -85 14 -32 30 -58 35 -58 9 0 86 -69 285 -255 72 -67 159 -148 195 -180 36 -32 103 -96 150 -142 55 -53 93 -83 107 -83 22 0 22 2 15 63 -7 64 -10 865 -3 1257 l3 224 -43 47 c-24 26 -103 109 -174 185 -72 77 -155 166 -185 199 -30 33 -66 71 -80 86 -52 56 -108 117 -190 209 -47 52 -94 104 -105 115 -11 11 -83 90 -160 175 -77 85 -162 180 -191 210 -28 30 -71 77 -95 105 -24 27 -66 74 -94 104 -50 54 -74 80 -171 182 -27 30 -97 106 -154 169 -57 63 -115 127 -129 141 -43 43 -216 231 -262 284 -23 28 -50 58 -58 68 -14 15 -39 17 -254 17 l-239 0 -38 -30 c-21 -17 -48 -30 -61 -30 -39 0 -96 34 -114 67 -21 39 -15 68 23 111 23 26 40 34 79 38 46 6 51 5 77 -26 l27 -33 235 -1 c196 -1 234 1 234 13 0 8 -28 43 -62 79 -70 71 -144 151 -169 180 -9 11 -22 21 -28 23 -13 5 -26 89 -17 122 3 15 20 30 45 42 47 21 83 11 120 -31 27 -31 29 -108 4 -136 -15 -17 -15 -20 4 -41 11 -12 31 -35 44 -51 13 -16 31 -37 39 -45 32 -34 80 -99 80 -108 0 -11 33 -43 43 -43 3 0 4 75 1 167 -4 160 -5 167 -29 189 -97 90 26 229 132 148 29 -22 33 -30 33 -74 0 -42 -4 -52 -29 -72 l-30 -23 -2 -225 -2 -225 49 -50 c27 -28 94 -99 149 -160 55 -60 116 -126 135 -146 93 -98 144 -153 240 -259 58 -63 123 -133 145 -156 37 -38 146 -156 275 -298 30 -33 71 -76 90 -97 67 -70 156 -166 255 -274 55 -60 116 -125 135 -146 49 -51 242 -258 260 -279 8 -9 47 -52 85 -95 39 -42 79 -90 90 -106 21 -30 41 -37 46 -16 2 6 2 330 -1 719 l-5 706 -36 39 c-19 21 -75 83 -124 138 -49 55 -100 112 -114 126 -14 14 -48 50 -75 80 -105 116 -275 297 -351 375 -44 45 -102 105 -129 133 l-49 51 -333 0 c-271 0 -335 -3 -341 -14 -10 -16 -66 -46 -88 -46 -9 0 -33 9 -54 20 -33 16 -40 26 -46 60 -10 58 1 92 36 113 38 21 92 22 109 2 7 -8 18 -15 25 -15 8 0 15 -5 17 -11 5 -15 651 -16 656 -1 3 10 -32 55 -88 112 -66 68 -162 172 -225 244 -78 88 -94 107 -145 162 -20 22 -69 77 -110 124 -41 47 -92 103 -113 125 -22 22 -57 64 -79 93 -24 31 -48 52 -60 52 -65 0 -113 74 -89 141 18 53 13 81 -24 124 -19 22 -38 45 -43 50 -33 46 -91 115 -115 138 -38 38 -36 90 4 95 19 2 29 -4 40 -25 7 -15 24 -39 36 -53 12 -14 35 -41 52 -60 17 -19 31 -38 31 -41 0 -3 11 -19 25 -35 14 -16 37 -48 52 -71 20 -32 34 -43 62 -48 20 -4 51 -18 69 -31 27 -22 32 -31 32 -69 0 -24 -4 -47 -10 -50 -19 -12 -9 -30 48 -90 31 -33 73 -81 91 -107 19 -26 38 -45 43 -42 5 3 6 130 2 297 -6 282 -7 293 -29 322 -39 52 -210 241 -291 322 -46 46 -52 55 -45 80 10 38 62 46 78 11 17 -36 114 -147 286 -325 l79 -83 -7 -81 c-4 -45 -4 -205 0 -355 l7 -273 27 -29 c14 -16 58 -65 96 -108 93 -103 177 -196 190 -210 126 -131 203 -230 232 -298 16 -39 27 -52 46 -54 17 -2 26 2 28 15 3 10 2 262 -1 559 l-5 541 -75 78 c-41 43 -93 97 -115 120 -22 23 -71 77 -110 120 -60 68 -122 137 -160 179 -6 6 -55 63 -110 126 -55 63 -110 126 -123 140 -27 30 -24 44 9 48 20 2 38 -12 89 -70 36 -39 78 -85 94 -101 15 -17 85 -93 154 -171 153 -171 124 -140 262 -282 64 -66 130 -136 148 -157 l32 -38 0 -542 c0 -319 -4 -568 -10 -605 -8 -47 -7 -68 2 -86 16 -30 66 -85 278 -306 246 -257 286 -301 312 -342 13 -21 30 -38 38 -38 13 0 15 81 12 682 l-3 683 -62 64 c-79 81 -98 101 -237 251 -63 68 -131 141 -150 161 -19 20 -53 56 -75 80 -235 258 -690 723 -913 933 -61 57 -62 58 -62 30 1 -16 7 -47 15 -69 8 -23 12 -54 9 -72 -10 -54 4 -97 51 -159 24 -32 64 -86 87 -118 24 -32 58 -73 76 -91 17 -17 32 -36 32 -41 0 -5 20 -27 45 -48 25 -20 68 -65 95 -99 28 -34 88 -100 133 -147 99 -101 127 -139 138 -188 9 -38 12 -584 4 -661 -3 -25 -9 -49 -14 -54 -11 -11 -85 61 -238 228 -104 114 -163 184 -163 193 0 4 -5 50 -11 102 -6 52 -11 196 -13 320 l-2 225 -30 60 c-16 33 -43 74 -59 92 -17 17 -58 62 -92 100 -128 139 -163 170 -228 198 -50 22 -55 28 -49 48 8 26 63 110 99 151 14 16 25 32 25 35 0 3 10 18 23 31 24 28 49 62 116 160 24 36 47 67 51 70 4 3 25 30 46 61 21 31 49 69 61 85 59 75 123 164 123 169 0 4 6 12 13 19 6 8 19 24 27 36 8 12 30 42 48 66 17 23 32 47 32 52 0 5 13 22 30 38 16 16 30 33 30 37 0 4 5 13 10 20 11 12 93 127 120 167 8 12 30 42 48 66 17 23 32 46 32 49 0 4 12 24 28 44 36 48 51 72 58 94 4 9 10 17 15 17 5 0 14 10 19 23 10 23 31 59 40 67 9 8 43 62 63 99 10 19 25 41 33 48 8 8 14 21 14 29 0 8 4 14 8 14 5 0 14 10 21 23 6 12 25 45 42 72 16 28 37 64 45 80 8 17 23 44 34 60 11 17 22 37 26 45 3 8 9 22 14 30 12 20 159 316 199 400 17 36 31 72 31 80 0 8 7 24 15 34 8 11 15 27 15 37 0 9 7 22 15 29 8 7 15 22 15 34 0 12 7 31 15 42 8 10 15 27 15 36 0 9 6 29 14 45 33 67 57 154 65 233 5 55 9 65 26 68 45 5 45 9 50 -449 2 -239 9 -501 14 -584 6 -82 11 -271 12 -420 0 -148 5 -340 9 -425 21 -378 41 -2066 27 -2222 -7 -78 -6 -88 8 -88 9 0 31 17 48 38 18 20 111 117 207 215 l175 178 -3 352 -3 352 -44 40 c-49 44 -61 77 -45 119 18 48 48 65 115 65 51 1 64 -3 84 -24 15 -16 25 -42 28 -69 5 -39 2 -47 -31 -83 l-36 -40 5 -319 c2 -175 4 -320 4 -322 2 -9 44 30 78 73 22 28 72 84 111 125 l71 75 1 434 0 433 -30 38 c-37 46 -40 102 -9 140 18 22 29 25 80 25 78 -1 109 -27 109 -95 0 -38 -5 -52 -31 -77 l-30 -32 2 -451 c1 -383 -1 -454 -13 -468 -8 -9 -28 -32 -44 -51 -35 -41 -56 -65 -109 -122 -22 -24 -69 -77 -105 -119 -88 -102 -121 -137 -291 -314 -80 -83 -172 -180 -204 -216 -33 -36 -70 -76 -83 -90 l-23 -25 3 -697 c3 -637 4 -698 19 -698 9 0 43 30 75 67 32 38 65 75 74 84 8 9 74 78 145 154 72 76 138 146 148 154 16 14 17 58 17 651 l1 635 156 160 c471 483 500 510 532 490 27 -16 3 -51 -111 -168 -238 -240 -459 -470 -483 -501 l-24 -31 -3 -563 c-2 -358 1 -562 7 -562 5 0 51 43 102 96 l93 97 -10 256 c-15 392 -14 634 2 664 7 14 72 87 143 163 72 75 141 149 154 163 13 14 105 111 205 216 233 244 319 335 391 415 33 36 64 66 71 68 18 5 44 -27 44 -52 0 -13 -15 -37 -37 -58 -37 -34 -331 -340 -488 -507 -96 -103 -227 -241 -275 -290 -19 -20 -59 -62 -87 -93 l-53 -57 0 -395 c0 -244 4 -397 10 -401 5 -3 34 32 64 77 30 46 63 92 73 103 10 11 43 52 73 90 30 39 57 72 61 75 3 3 39 43 79 90 125 146 384 427 448 484 39 37 43 43 37 76 -5 29 -1 43 25 78 17 24 49 52 74 64 l44 21 45 -21 c35 -16 48 -29 57 -57 24 -71 -23 -141 -106 -156 -29 -6 -53 -17 -62 -30 -19 -28 -201 -238 -228 -264 -20 -20 -71 -76 -199 -220 -38 -43 -77 -86 -86 -94 -8 -9 -39 -44 -67 -78 -28 -34 -67 -81 -88 -103 -83 -89 -95 -105 -92 -123 3 -19 16 -19 297 -19 l294 1 29 28 c23 22 37 27 77 26 83 -1 131 -61 110 -136 -23 -85 -108 -106 -193 -49 l-47 32 -323 0 -323 0 -54 -62 c-30 -35 -70 -79 -89 -99 -139 -145 -177 -187 -270 -289 -104 -116 -179 -197 -235 -254 -17 -17 -77 -82 -134 -144 l-104 -112 4 -418 c2 -229 4 -546 4 -705 l0 -287 23 0 c12 0 22 3 22 8 0 4 17 25 38 47 51 55 157 169 277 299 55 60 118 128 140 150 22 23 87 93 145 156 105 116 184 201 231 249 14 14 72 78 129 141 97 107 170 186 230 249 14 14 70 76 125 136 121 134 162 177 386 409 96 99 202 210 234 246 32 36 81 88 111 116 l52 50 3 138 3 138 -28 21 c-28 20 -56 71 -56 101 0 25 48 73 80 79 79 16 120 -23 120 -113 0 -43 -4 -57 -25 -76 -23 -21 -25 -30 -25 -108 0 -46 -3 -91 -6 -100 -11 -28 27 -32 48 -5 24 29 63 76 91 106 12 14 23 45 28 79 10 73 31 94 99 94 69 0 90 -22 90 -94 0 -47 -4 -57 -26 -75 -17 -13 -42 -21 -68 -21 -45 -1 -59 -9 -95 -55 -12 -16 -50 -58 -83 -92 -33 -34 -57 -66 -54 -71 3 -5 90 -7 193 -4 176 4 190 6 213 26 35 31 77 56 93 56 19 0 73 -27 84 -43 5 -6 17 -33 27 -59 16 -43 16 -49 1 -77 -33 -65 -114 -79 -175 -31 l-38 30 -222 0 -223 0 -59 -60 c-32 -33 -64 -60 -72 -60 -7 0 -35 -24 -62 -52 -72 -79 -264 -285 -304 -327 -61 -64 -171 -183 -280 -300 -58 -63 -123 -133 -145 -155 -22 -23 -92 -98 -155 -166 -112 -122 -199 -216 -250 -269 -14 -14 -86 -91 -160 -171 -145 -157 -221 -238 -260 -279 -14 -14 -86 -91 -160 -171 -73 -80 -166 -178 -204 -218 -39 -40 -74 -79 -78 -86 -4 -7 -3 -310 3 -672 5 -363 7 -703 3 -756 -8 -124 2 -132 78 -56 43 44 199 189 327 307 14 13 78 72 141 131 63 59 129 120 147 136 21 19 35 44 42 74 14 62 32 73 106 66 l61 -6 120 119 c67 65 135 126 153 135 34 18 37 27 20 57 -15 28 6 86 39 106 15 9 29 18 31 20 2 1 3 177 2 390 l-2 388 198 203 198 202 155 0 c125 0 160 3 178 16 12 8 22 21 22 29 0 26 52 57 85 51 28 -6 39 3 170 136 151 155 238 247 355 379 235 263 496 529 521 529 15 0 19 -7 19 -33 0 -37 -5 -44 -108 -152 -37 -38 -105 -113 -152 -164 -47 -52 -98 -109 -115 -126 -39 -41 -119 -128 -174 -190 -84 -95 -266 -289 -333 -357 -62 -61 -67 -70 -58 -93 12 -33 0 -65 -38 -97 -40 -33 -88 -42 -138 -25 -29 10 -80 12 -195 9 l-156 -4 -144 -147 c-79 -80 -157 -161 -172 -180 l-27 -35 0 -356 c0 -333 1 -358 18 -373 10 -10 23 -17 29 -17 5 0 18 -18 28 -40 15 -34 16 -44 5 -70 -19 -45 -60 -70 -117 -70 -43 -1 -53 -5 -99 -48 -65 -60 -189 -171 -232 -207 -30 -25 -33 -32 -27 -65 9 -52 -24 -115 -70 -137 -29 -14 -41 -14 -73 -5 -22 7 -48 12 -58 12 -12 0 -163 -144 -387 -367 l-367 -367 0 -263 c0 -273 1 -281 40 -250 8 7 31 32 50 57 19 25 40 50 46 55 6 6 33 37 60 70 55 67 93 111 111 130 7 7 48 55 91 106 43 52 90 108 104 124 15 17 57 66 94 110 38 44 72 83 76 86 5 3 19 20 32 37 20 28 77 93 177 203 13 14 56 61 94 104 39 43 80 90 93 104 13 14 33 37 45 51 13 14 65 75 117 135 52 61 97 112 100 115 3 3 29 34 59 70 30 36 62 72 70 81 33 33 90 98 186 209 55 63 109 124 121 135 12 11 52 56 90 100 38 44 80 93 94 109 14 16 36 40 50 55 14 14 52 58 85 96 56 66 111 128 146 164 8 9 58 65 110 126 52 60 103 119 114 130 11 11 51 56 90 100 38 44 76 87 85 96 38 40 101 110 163 184 38 44 79 91 91 105 12 14 44 54 71 90 27 36 54 70 61 75 6 6 33 38 60 73 27 35 74 94 104 132 30 38 77 97 104 132 27 35 54 68 60 73 6 6 27 30 46 55 19 25 37 47 41 50 12 10 119 152 119 159 0 3 12 20 26 36 15 17 33 41 42 55 9 14 42 59 72 100 68 91 230 334 230 346 1 19 39 54 59 54 17 0 21 -6 21 -30 0 -18 -6 -33 -15 -36 -8 -4 -15 -17 -15 -30 0 -14 -7 -27 -15 -30 -8 -4 -15 -12 -15 -20 0 -7 -17 -44 -37 -81 -20 -38 -45 -84 -56 -103 -10 -19 -27 -48 -38 -65 -10 -16 -22 -37 -26 -45 -3 -8 -10 -17 -13 -20 -6 -4 -27 -38 -75 -118 -6 -9 -46 -70 -90 -135 -44 -65 -84 -126 -90 -135 -13 -21 -126 -173 -140 -188 -5 -6 -17 -22 -25 -35 -8 -12 -29 -39 -46 -58 -17 -20 -52 -65 -79 -101 -27 -36 -54 -69 -61 -75 -6 -5 -33 -39 -60 -75 -26 -36 -53 -69 -59 -75 -7 -5 -27 -30 -45 -55 -32 -42 -65 -81 -101 -119 -8 -9 -30 -36 -49 -61 -19 -25 -41 -52 -49 -61 -23 -23 -59 -65 -120 -139 -29 -36 -56 -67 -60 -70 -4 -3 -63 -70 -131 -150 -68 -80 -127 -147 -131 -150 -3 -3 -37 -41 -75 -85 -62 -72 -128 -146 -161 -180 -7 -7 -43 -48 -80 -92 -61 -71 -128 -145 -160 -178 -10 -11 -40 -44 -173 -199 -14 -16 -36 -40 -50 -55 -14 -14 -52 -57 -85 -96 -57 -68 -113 -131 -146 -164 -8 -9 -39 -44 -67 -78 -47 -58 -106 -125 -143 -162 -8 -9 -38 -43 -65 -76 -63 -77 -91 -108 -134 -154 -19 -21 -53 -59 -75 -86 -22 -27 -50 -60 -63 -74 -56 -63 -73 -82 -162 -186 -52 -60 -100 -114 -106 -120 -6 -5 -92 -104 -191 -220 -99 -115 -233 -263 -298 -329 l-117 -119 7 -51 c5 -38 25 -1224 21 -1232 -1 -1 -76 -4 -168 -6 -110 -2 -169 0 -171 7 -4 12 8 416 22 765 6 140 11 314 11 386 l0 131 -99 99 c-54 55 -131 137 -171 184 -40 47 -82 94 -94 105 -12 11 -63 70 -115 130 -52 61 -102 117 -110 126 -34 35 -95 102 -141 157 -26 31 -63 73 -82 94 -39 43 -61 68 -148 168 -36 42 -83 95 -105 119 -55 59 -72 78 -135 152 -30 35 -62 70 -70 79 -8 8 -58 65 -110 125 -52 61 -111 128 -132 150 -49 54 -73 80 -138 156 -30 35 -62 70 -70 79 -8 9 -46 52 -85 95 -118 134 -139 158 -170 190 -16 17 -75 80 -129 140 -154 170 -260 287 -273 300 -6 6 -35 41 -64 76 -28 35 -57 69 -63 74 -11 10 -104 118 -181 209 -21 26 -48 58 -60 70 -11 13 -45 54 -75 91 -30 37 -62 75 -71 84 -8 9 -30 36 -49 61 -18 25 -38 50 -44 55 -6 6 -29 33 -51 60 -21 28 -42 52 -45 55 -22 18 -400 533 -400 545 0 3 -182 281 -197 300 -4 6 -25 44 -47 85 -21 41 -50 93 -65 115 -15 22 -30 47 -34 55 -4 8 -16 29 -27 45 -11 17 -24 40 -30 53 -5 12 -14 22 -20 22 -21 0 -21 -28 -1 -86 12 -32 21 -66 21 -75 0 -9 6 -19 14 -22 8 -3 22 -30 31 -59 10 -29 22 -58 27 -64 5 -7 19 -31 32 -55 49 -93 78 -143 97 -168 26 -34 109 -159 109 -164 0 -9 125 -195 164 -244 23 -28 79 -104 126 -169 47 -64 103 -139 125 -165 22 -27 58 -72 80 -99 22 -28 56 -70 76 -93 20 -23 39 -50 42 -59 4 -10 11 -18 16 -18 6 0 44 -42 85 -92 98 -122 209 -254 250 -298 18 -19 39 -46 48 -60 9 -14 51 -63 93 -110 43 -47 105 -116 139 -154 34 -38 83 -92 110 -120 26 -28 57 -64 69 -80 11 -15 28 -38 39 -50 74 -85 106 -125 121 -148 10 -16 23 -28 31 -28 7 0 25 -17 39 -37 15 -20 57 -69 95 -107 37 -39 101 -109 142 -156 40 -47 79 -92 86 -100 69 -79 104 -122 104 -130 0 -6 6 -10 13 -10 12 0 194 -196 211 -228 5 -9 46 -57 91 -107 44 -49 94 -106 109 -125 31 -39 174 -200 336 -380 58 -64 139 -157 182 -206 42 -49 126 -141 187 -204 104 -107 124 -140 86 -140 -8 0 -15 -4 -15 -10 0 -5 14 -10 30 -10 64 0 157 -132 146 -208 -5 -38 -18 -643 -20 -942 -1 -180 -4 -168 69 -268 l30 -41 167 -1 166 0 47 52 c26 29 52 64 57 78 7 16 8 226 3 601 l-7 575 28 56 c31 64 79 98 138 98 20 0 36 5 36 10 0 6 -4 10 -9 10 -5 0 -19 13 -31 30 l-21 30 30 18 c36 22 114 96 156 148 17 21 47 55 68 76 20 21 37 43 37 48 0 5 21 31 48 57 26 25 54 57 62 69 15 22 38 48 199 228 35 39 82 95 104 123 22 29 43 53 48 53 4 0 19 15 31 34 30 43 124 151 216 245 39 42 72 79 72 83 0 5 47 57 105 116 l105 107 -25 -57 c-22 -51 -23 -64 -15 -108 10 -52 36 -93 89 -142 26 -25 37 -28 96 -28 59 0 72 4 109 31 47 33 80 84 91 139 21 103 39 133 135 231 106 107 123 119 195 132 64 12 717 15 770 3 22 -5 51 -19 65 -31 27 -24 58 -34 131 -42 76 -8 143 38 181 126 17 41 17 48 4 95 -33 113 -150 164 -277 121 -42 -14 -237 -37 -250 -29 -3 2 -99 4 -212 5 -129 0 -218 5 -240 13 -19 6 -59 30 -89 53 -47 37 -123 78 -138 76 -3 0 -24 -4 -47 -8 l-42 -7 15 44 c10 30 42 73 104 138 50 51 90 97 90 101 0 3 35 45 78 92 122 135 195 218 217 247 11 15 53 63 92 106 40 44 85 96 100 116 16 19 62 75 103 124 161 191 199 237 310 380 63 81 127 160 142 174 15 15 48 58 74 96 26 38 65 89 87 114 21 25 47 61 57 80 10 19 27 44 39 54 11 10 33 40 48 65 23 41 74 114 102 148 6 6 20 32 32 58 12 25 32 53 45 62 13 8 24 21 24 27 0 6 21 54 48 106 26 52 58 130 72 173 28 92 50 100 64 24 5 -28 13 -46 20 -44 11 4 12 178 1 244 -7 39 -58 93 -88 93 -29 0 -120 -67 -142 -104 -10 -15 -29 -38 -42 -50 -14 -11 -45 -50 -68 -86 -24 -36 -62 -90 -84 -120 -22 -30 -45 -65 -50 -77 -15 -33 -221 -303 -320 -418 -5 -5 -22 -22 -37 -36 -16 -14 -47 -49 -69 -78 -22 -30 -50 -65 -63 -80 -13 -14 -49 -61 -82 -105 -32 -43 -68 -85 -79 -93 -12 -8 -21 -19 -21 -25 0 -6 -19 -33 -42 -59 -24 -27 -68 -78 -98 -114 -30 -37 -95 -110 -144 -163 -49 -53 -111 -124 -138 -157 -28 -33 -80 -92 -117 -131 -94 -102 -180 -199 -236 -269 -27 -33 -65 -75 -84 -95 -20 -19 -74 -80 -121 -135 -82 -96 -109 -126 -290 -323 -99 -108 -119 -114 -157 -47 -22 39 -23 48 -23 318 0 276 0 278 25 325 32 61 175 209 245 253 53 33 56 34 160 33 58 0 146 -3 195 -5 88 -4 92 -3 125 24 56 46 131 138 137 168 7 34 73 116 240 294 70 75 145 158 166 183 57 69 239 264 339 363 75 74 89 94 103 142 9 31 21 59 26 62 5 4 9 22 9 42 0 30 -9 43 -57 89 -31 30 -59 54 -62 54 -10 0 -138 -104 -190 -153 -50 -48 -261 -271 -332 -352 -25 -27 -74 -80 -109 -117 -36 -37 -103 -110 -150 -163 -47 -53 -105 -112 -130 -132 -25 -20 -52 -44 -60 -54 -8 -10 -46 -34 -85 -54 -38 -20 -85 -45 -104 -57 -26 -17 -62 -24 -166 -33 -131 -11 -135 -12 -190 -50 -65 -45 -278 -260 -349 -354 -69 -89 -78 -123 -75 -261 1 -63 2 -126 1 -140 0 -14 -1 -106 -3 -205 -1 -149 -5 -189 -21 -232 -10 -28 -25 -56 -33 -63 -8 -6 -21 -33 -30 -59 -27 -82 -164 -210 -252 -236 -87 -26 -146 -70 -216 -165 -46 -62 -152 -166 -400 -393 -31 -28 -73 -45 -84 -33 -15 15 -24 309 -21 730 l3 452 30 46 c29 44 192 223 394 432 53 54 107 114 122 132 14 18 85 95 157 171 161 171 423 451 562 602 112 121 119 129 276 292 55 57 129 138 165 179 115 136 341 353 399 385 54 29 58 30 200 30 112 0 155 -4 190 -17 89 -33 127 -39 171 -28 48 13 116 72 159 139 30 47 30 49 17 100 -13 49 -69 131 -91 131 -5 0 -17 7 -26 15 -9 8 -37 21 -62 29 -37 11 -52 11 -81 1 -51 -18 -117 -27 -117 -16 0 5 8 15 17 22 9 8 29 42 44 76 28 60 28 62 13 108 -17 47 -65 103 -119 136 -33 21 -114 26 -145 9 -15 -8 -30 1 -89 55 -75 68 -130 93 -173 76 -37 -14 -101 -69 -130 -113 -39 -57 -37 -104 7 -182 41 -74 45 -128 16 -206 -20 -52 -78 -121 -290 -340 -161 -167 -227 -235 -381 -400 -208 -222 -243 -260 -286 -309 -140 -160 -717 -777 -746 -799 -10 -7 -18 -18 -18 -23 0 -20 -138 -151 -156 -147 -32 6 -35 56 -32 443 0 11 -1 146 -3 300 -3 328 -5 320 100 430 36 39 80 87 96 105 84 95 419 457 504 544 53 54 112 105 131 114 69 31 553 26 594 -6 6 -5 34 -17 61 -26 38 -12 58 -14 84 -6 94 27 181 129 181 211 0 40 -6 55 -39 97 -73 92 -140 121 -227 98 -27 -7 -59 -18 -69 -23 -49 -25 -270 -22 -296 4 -21 21 1 62 81 156 44 50 86 99 94 107 8 8 59 65 113 125 53 61 101 112 106 114 4 1 12 8 17 15 57 72 145 159 194 192 118 80 169 180 136 271 -6 15 -33 49 -60 74 -110 104 -230 82 -335 -62 -21 -27 -48 -73 -62 -101 -17 -35 -77 -106 -183 -217 -87 -91 -173 -185 -191 -208 -85 -106 -205 -233 -220 -233 -22 0 -26 36 -24 232 1 155 1 157 30 200 16 24 41 54 56 68 33 31 215 223 379 400 171 184 345 368 392 411 35 34 38 41 38 93 0 53 -2 58 -48 106 -77 79 -117 68 -246 -70 -127 -136 -240 -240 -261 -240 -12 0 -39 14 -60 30 -40 32 -70 34 -137 8 -45 -17 -71 -7 -81 31 -4 19 -7 188 -5 375 3 294 6 346 21 378 30 65 39 128 26 175 -14 53 -76 113 -142 138 -40 15 -53 16 -90 6 -54 -16 -130 -86 -147 -136 -14 -41 -7 -119 15 -171 29 -70 30 -264 2 -264 -7 1 -30 14 -52 30 -125 93 -216 82 -315 -35 -40 -48 -41 -52 -38 -107 3 -44 13 -70 44 -120 l39 -63 0 -285 c-1 -326 3 -308 -94 -409 -64 -67 -90 -74 -102 -30 -3 14 -9 230 -13 480 -3 250 -8 515 -11 589 -2 74 -7 284 -10 465 -4 182 -8 355 -10 385 -18 230 -49 1246 -39 1261 9 15 6 155 -5 217 -6 31 -15 118 -21 192 -6 74 -15 152 -21 172 -11 43 -77 118 -103 118 -9 0 -35 -17 -57 -38z m813 -3100 c18 -66 2 -252 -21 -252 -19 0 -29 217 -11 251 13 24 26 24 32 1z m-2664 -184 c14 -49 54 -105 184 -253 60 -69 92 -137 93 -197 0 -25 -3 -49 -7 -53 -8 -8 -43 10 -88 47 -19 15 -40 28 -47 28 -7 0 -53 46 -102 103 -95 107 -120 129 -161 137 -19 4 -26 12 -28 34 -2 16 1 33 7 39 6 6 11 17 11 24 0 16 101 122 117 123 7 0 16 -15 21 -32z m1412 -905 c135 -138 240 -255 240 -268 0 -6 9 -19 21 -29 21 -18 21 -18 14 -494 -4 -262 -9 -480 -12 -484 -16 -27 -55 1 -180 130 -193 199 -213 227 -229 318 -7 42 -11 97 -8 122 6 59 6 19 1 417 -2 187 0 350 5 363 15 44 48 28 148 -75z m959 -37 c8 -9 10 -149 7 -502 -4 -411 -7 -496 -20 -532 -20 -55 -162 -211 -192 -212 -39 0 -43 46 -48 558 -3 258 0 436 6 458 6 24 41 68 111 140 56 57 107 104 113 104 6 0 17 -6 23 -14z m-2333 -933 c67 -45 116 -51 197 -25 87 28 181 34 408 23 187 -9 199 -11 238 -35 23 -15 49 -35 59 -45 9 -9 73 -76 142 -147 69 -72 172 -182 230 -244 58 -63 135 -146 171 -185 112 -120 178 -204 186 -238 5 -17 6 -257 3 -532 -5 -462 -6 -500 -22 -503 -26 -5 -77 40 -206 183 -64 72 -166 182 -227 245 -60 63 -153 162 -205 220 -52 58 -134 145 -181 195 -47 49 -130 140 -184 200 -54 61 -138 151 -186 200 -130 134 -430 463 -471 516 -29 38 -36 58 -42 113 -7 69 5 112 27 100 7 -4 35 -22 63 -41z m4224 -2913 c18 -13 31 -35 39 -65 l11 -46 409 3 c389 3 410 4 430 22 31 28 116 28 153 1 51 -38 49 -125 -3 -169 -53 -45 -142 -28 -174 33 l-15 29 -452 6 c-249 3 -466 7 -482 7 -24 1 -40 -11 -93 -70 -36 -39 -104 -111 -152 -159 -105 -105 -111 -114 -100 -161 16 -70 11 -101 -22 -132 -25 -24 -40 -29 -79 -29 -44 0 -52 4 -79 37 -41 50 -41 88 2 137 25 29 41 39 76 43 38 5 46 11 70 50 14 25 35 55 46 67 66 73 193 212 207 227 22 23 39 56 37 72 -5 37 4 61 33 88 39 35 95 39 138 9z m-307 -87 c4 -19 0 -36 -14 -53 -10 -14 -30 -42 -44 -62 -14 -21 -29 -38 -33 -38 -5 0 -23 -20 -42 -45 -19 -25 -59 -62 -89 -83 -31 -20 -73 -55 -94 -76 -39 -41 -57 -44 -36 -4 13 25 114 148 219 267 121 138 124 140 133 94z m-2805 -725 c103 -101 200 -199 217 -218 16 -19 80 -82 140 -139 61 -57 118 -120 128 -139 23 -47 23 -140 0 -149 -19 -7 -106 80 -268 268 -55 64 -180 203 -277 308 -169 183 -195 221 -171 244 21 21 59 -8 231 -175z m1692 104 c0 -9 -25 -46 -56 -82 -31 -36 -77 -90 -103 -120 -25 -30 -64 -75 -86 -100 -23 -25 -65 -74 -95 -110 -30 -36 -100 -118 -155 -182 -55 -65 -110 -131 -123 -148 -26 -33 -56 -39 -66 -14 -11 29 -6 104 9 141 18 42 542 572 603 609 45 28 72 30 72 6z" style="fill: rgb(16, 185, 129);"/>
    <path d="M4422 10915 c-35 -282 -40 -346 -46 -540 -4 -115 -11 -257 -17 -315 -5 -58 -11 -172 -14 -255 -2 -82 -8 -217 -14 -300 -10 -154 -14 -248 -31 -700 -13 -367 -19 -576 -25 -915 -6 -285 -13 -350 -39 -350 -22 0 -125 106 -141 145 -15 36 -17 100 -18 581 l-1 542 27 38 c15 22 34 49 42 60 9 12 18 44 21 71 6 50 4 57 -56 162 -11 19 -15 57 -15 138 0 111 0 112 34 159 27 39 34 59 35 99 1 90 -74 183 -161 201 -112 22 -223 -81 -223 -207 0 -30 3 -59 7 -63 46 -46 51 -308 7 -357 -8 -9 -19 -33 -25 -53 -10 -38 -29 -49 -29 -17 0 10 -7 36 -16 57 -14 33 -14 51 -3 153 15 142 9 181 -30 204 -17 10 -33 26 -36 37 -9 29 -31 25 -80 -17 -52 -43 -63 -67 -69 -155 -5 -78 -7 -83 -50 -106 -18 -9 -54 -41 -81 -71 l-48 -55 7 -68 c4 -45 13 -78 26 -96 11 -15 22 -47 25 -72 8 -79 7 -448 -1 -462 -5 -7 -7 -21 -6 -30 2 -11 -3 -18 -12 -18 -9 0 -16 7 -16 15 0 9 -12 20 -26 25 -14 6 -55 38 -90 73 -140 135 -160 153 -195 175 -42 25 -81 28 -98 8 -10 -11 -8 -16 6 -20 10 -3 130 -118 268 -256 137 -137 254 -250 260 -250 7 0 9 132 8 402 l-2 401 -37 38 c-31 32 -37 45 -38 83 -1 36 4 48 24 65 14 11 30 25 37 31 20 17 96 11 130 -10 22 -13 34 -29 38 -54 9 -44 1 -69 -36 -108 -16 -18 -29 -39 -29 -48 -1 -8 -1 -203 -1 -433 l-1 -418 159 -162 c87 -89 164 -162 171 -162 10 0 13 111 13 573 l-1 573 -29 24 c-50 43 -46 119 10 183 l29 33 0 159 0 159 -32 30 c-30 28 -33 36 -32 85 2 66 25 94 87 102 64 8 98 -7 130 -54 l29 -42 -18 -45 c-9 -25 -19 -45 -23 -45 -3 -1 -16 -9 -29 -20 -21 -18 -23 -26 -25 -177 l-3 -158 36 -35 c56 -55 67 -83 47 -124 -10 -23 -29 -40 -56 -52 -23 -10 -41 -20 -41 -23 -4 -743 -9 -1183 -15 -1206 -6 -29 2 -39 155 -195 89 -91 177 -183 196 -204 30 -35 36 -38 48 -25 11 11 12 26 6 64 -12 70 -12 658 1 910 5 116 14 413 18 660 5 248 11 457 15 465 19 47 43 1438 27 1600 l-6 65 -13 -100z m-765 -1600 c-3 -114 -6 -137 -22 -155 -40 -44 -55 -13 -55 111 0 37 -5 79 -11 93 -9 19 -8 31 2 55 12 27 19 31 51 31 l38 0 -3 -135z m93 -351 c0 -8 16 -40 36 -71 l37 -54 -3 -322 c-3 -455 -4 -486 -23 -504 -14 -15 -20 -12 -66 26 -35 29 -51 50 -51 66 0 13 -5 36 -11 52 -7 18 -11 143 -10 365 1 361 3 382 53 435 25 27 38 29 38 7z" style="fill: rgb(16, 185, 129);"/>
    <path d="M8686 5890 c3 -25 9 -74 13 -110 3 -36 11 -72 16 -80 9 -15 15 -64 35 -320 5 -74 15 -165 20 -203 15 -99 12 -435 -5 -557 -8 -58 -15 -132 -15 -165 0 -33 -5 -77 -11 -98 -6 -21 -14 -69 -19 -105 -5 -37 -20 -110 -34 -162 -14 -52 -26 -107 -26 -121 0 -15 -7 -43 -15 -62 -8 -20 -15 -48 -15 -61 0 -14 -6 -40 -14 -58 -21 -51 -38 -100 -43 -128 -2 -14 -11 -38 -18 -55 -33 -73 -45 -104 -45 -113 0 -6 -6 -23 -14 -39 -8 -15 -21 -44 -29 -63 -23 -53 -79 -173 -88 -190 -5 -8 -20 -37 -34 -65 -15 -27 -35 -66 -47 -85 -76 -131 -125 -210 -150 -241 -15 -20 -28 -40 -28 -43 0 -4 -5 -12 -10 -19 -6 -7 -47 -61 -92 -122 -45 -60 -87 -114 -93 -120 -6 -5 -52 -57 -102 -115 -95 -110 -244 -258 -328 -324 -28 -22 -54 -45 -60 -51 -24 -26 -298 -225 -310 -225 -2 0 -23 -12 -47 -27 -68 -44 -76 -48 -218 -118 -181 -89 -191 -93 -223 -101 -15 -3 -30 -10 -33 -15 -3 -5 -13 -9 -22 -9 -9 0 -30 -7 -46 -15 -15 -8 -33 -15 -38 -15 -6 0 -24 -6 -41 -14 -32 -14 -89 -30 -157 -45 -19 -4 -45 -13 -57 -19 -12 -7 -42 -12 -67 -12 -25 0 -65 -6 -88 -14 -106 -34 -591 -43 -728 -14 -25 5 -79 14 -120 19 -41 5 -79 14 -84 19 -12 12 -96 13 -96 1 0 -5 21 -12 47 -16 26 -4 56 -13 67 -21 11 -8 34 -14 51 -14 17 0 54 -6 81 -14 27 -8 74 -17 104 -21 30 -4 64 -9 75 -13 11 -3 115 -7 230 -9 187 -3 227 0 365 22 212 35 528 116 565 146 6 4 32 15 59 24 57 20 307 143 386 191 30 18 73 43 95 55 43 23 287 204 369 273 93 78 167 152 296 293 263 288 434 536 603 878 113 227 161 350 227 580 18 61 40 129 51 153 11 24 23 73 29 110 5 37 14 99 20 137 36 224 44 340 45 635 0 168 -3 339 -8 380 -4 41 -10 104 -13 140 -9 117 -23 214 -44 300 -11 47 -25 121 -31 165 -7 44 -17 87 -24 95 -7 8 -15 24 -19 35 -3 11 -3 0 0 -25z" style="fill: rgb(16, 185, 129);"/>
    <path d="M2385 5525 c-42 -23 -102 -83 -120 -121 -8 -17 -15 -52 -15 -77 0 -37 7 -53 39 -94 66 -82 95 -105 143 -110 54 -6 104 17 165 76 97 94 81 206 -44 305 -45 37 -122 46 -168 21z m108 -91 c50 -25 76 -63 76 -109 0 -46 -20 -75 -66 -94 -59 -24 -136 13 -163 79 -18 43 10 96 65 121 50 22 50 22 88 3z" style="fill: rgb(16, 185, 129);"/>
    <path d="M6494 5518 c-23 -13 -60 -44 -84 -71 -85 -95 -61 -196 72 -296 55 -41 123 -29 206 38 96 75 107 171 32 261 -49 58 -82 78 -142 86 -34 4 -52 0 -84 -18z m115 -87 c44 -23 71 -59 71 -97 0 -38 -43 -90 -85 -104 -30 -10 -41 -9 -72 7 -93 45 -92 146 2 196 38 21 39 21 84 -2z" style="fill: rgb(16, 185, 129);"/>
    <path d="M7802 4499 c-51 -25 -98 -80 -114 -131 -9 -32 -8 -48 11 -103 11 -36 21 -75 21 -88 0 -28 -27 -73 -70 -115 -51 -52 -74 -63 -134 -66 -70 -5 -126 -40 -163 -103 -33 -57 -28 -118 14 -170 45 -56 87 -75 158 -71 52 3 69 10 120 46 33 23 78 64 100 92 22 27 43 50 46 50 4 0 22 14 40 31 18 17 50 39 72 50 55 29 159 22 247 -16 81 -34 149 -34 232 1 31 13 69 24 82 24 35 0 169 51 159 61 -4 4 -64 11 -133 15 l-125 6 -29 -31 c-24 -25 -38 -31 -70 -31 -40 1 -86 26 -86 48 0 5 -17 12 -37 16 -61 10 -278 7 -309 -4 -16 -6 -43 -30 -61 -53 -18 -23 -69 -82 -115 -131 -77 -82 -86 -88 -130 -93 -68 -8 -92 1 -111 42 -24 51 -21 70 18 110 48 47 88 48 128 3 l28 -33 31 35 c17 19 45 51 62 70 17 19 42 51 56 72 13 20 38 42 55 50 29 12 30 16 33 79 3 64 2 67 -33 102 -51 51 -49 92 6 142 37 33 46 37 80 32 83 -11 121 -118 60 -169 -38 -32 -46 -53 -46 -113 l0 -50 140 -3 c108 -2 142 0 150 11 11 15 72 47 89 47 6 0 34 -18 61 -40 l50 -40 95 0 c91 0 141 12 144 35 1 14 -86 41 -157 50 -36 5 -72 17 -94 32 -30 20 -49 25 -104 25 -37 0 -93 -8 -125 -17 -66 -19 -78 -16 -98 23 -13 25 -13 34 0 71 14 40 13 46 -6 86 -29 60 -101 125 -139 125 -16 0 -35 2 -43 5 -7 3 -32 -4 -56 -16z" style="fill: rgb(16, 185, 129);"/>
    <path d="M845 4211 c-56 -27 -72 -30 -244 -40 -178 -11 -211 -18 -211 -46 0 -22 31 -27 175 -26 77 0 164 -3 194 -8 50 -8 56 -6 77 15 13 12 37 31 54 40 26 16 34 17 67 5 63 -22 80 -38 98 -90 10 -31 34 -68 63 -99 63 -65 93 -100 122 -142 23 -33 39 -50 50 -50 3 0 22 16 44 34 46 42 83 52 131 36 89 -29 85 -129 -7 -174 -42 -22 -68 -20 -130 8 -65 28 -100 62 -223 210 -83 100 -70 91 -115 71 -54 -24 -105 -15 -142 26 l-29 31 -147 -1 c-169 -1 -262 -9 -262 -23 0 -5 19 -17 43 -28 30 -13 79 -20 177 -25 131 -7 137 -8 217 -47 72 -35 87 -39 127 -33 l45 7 63 -68 c135 -145 177 -181 237 -203 73 -26 103 -26 158 0 92 45 152 154 118 218 -16 31 -81 94 -114 111 -26 13 -126 7 -166 -12 -16 -7 -29 -7 -43 1 -26 14 -99 110 -137 179 -46 85 -139 152 -210 152 -11 0 -47 -13 -80 -29z" style="fill: rgb(16, 185, 129);"/>
    <path d="M2093 3520 c-17 -4 -64 -35 -102 -68 -56 -48 -80 -62 -113 -66 -76 -11 -652 -13 -684 -3 -75 23 -165 -17 -219 -98 -42 -61 -35 -96 33 -165 54 -56 61 -60 104 -60 32 0 55 7 79 25 84 62 71 60 474 60 240 0 393 -5 435 -12 63 -12 67 -14 143 -94 106 -110 123 -139 137 -229 18 -123 83 -197 182 -207 66 -7 107 12 158 70 48 55 59 77 60 115 0 62 -71 161 -150 210 -19 12 -57 47 -85 79 -108 124 -149 168 -161 176 -16 9 -46 111 -38 131 4 9 -15 35 -53 74 -54 55 -62 59 -113 64 -30 3 -69 2 -87 -2z m116 -97 c35 -21 44 -49 35 -109 -6 -43 -5 -45 44 -89 60 -54 207 -224 245 -282 22 -35 33 -43 57 -43 20 0 40 -11 65 -35 46 -47 49 -104 8 -147 -23 -24 -34 -28 -82 -28 -91 1 -118 38 -102 141 10 64 6 75 -59 144 -87 93 -165 180 -198 220 -31 38 -35 40 -90 40 -31 -1 -247 -2 -480 -4 l-422 -2 -18 -25 c-45 -64 -52 -69 -98 -68 -58 1 -84 25 -84 76 0 22 4 48 10 58 11 20 67 43 82 34 5 -3 210 -6 456 -5 l447 1 3 37 c2 21 15 53 28 71 22 28 31 32 74 32 28 0 61 -7 79 -17z" style="fill: rgb(16, 185, 129);"/>
    <path d="M2500 1470 c0 -5 11 -10 25 -10 14 0 25 5 25 10 0 6 -11 10 -25 10 -14 0 -25 -4 -25 -10z" style="fill: rgb(16, 185, 129);"/>
    <path d="M2590 1440 c20 -13 47 -13 55 0 4 6 -9 10 -32 10 -28 0 -34 -3 -23 -10z" style="fill: rgb(16, 185, 129);"/>
    <path d="M4995 1440 c-8 -13 20 -24 36 -15 8 6 7 10 -2 16 -18 11 -26 11 -34 -1z" style="fill: rgb(16, 185, 129);"/>
    <path d="M2705 1410 c3 -5 17 -10 31 -10 14 0 22 4 19 10 -3 6 -17 10 -31 10 -14 0 -22 -4 -19 -10z" style="fill: rgb(16, 185, 129);"/>
  </g>
</svg>